<?xml version="1.0" encoding="UTF-8"?>
<svg xmlns="http://www.w3.org/2000/svg" xmlns:xlink="http://www.w3.org/1999/xlink" width="2167px" height="715px" viewBox="0 0 2170 715" version="1.1">
<g id="surface1">
<path style=" stroke:none;fill-rule:nonzero;fill:rgb(100%,64.705882%,0%);fill-opacity:1;" d="M 365.972656 118.433594 C 361.875 121.265625 359.042969 126.304688 359.042969 131.660156 C 359.042969 145.203125 363.136719 148.667969 376.679688 147.410156 C 386.757812 146.78125 389.277344 144.890625 391.796875 137.960938 C 394.316406 130.714844 393.6875 127.882812 387.386719 121.265625 C 378.882812 112.132812 375.417969 111.503906 365.972656 118.433594 Z M 365.972656 118.433594 "/>
<path style=" stroke:none;fill-rule:nonzero;fill:rgb(0%,0%,0%);fill-opacity:1;" d="M 477.464844 146.78125 C 467.070312 157.175781 475.257812 176.386719 490.375 176.386719 C 504.863281 176.386719 513.367188 151.503906 501.085938 144.890625 C 492.265625 140.480469 483.132812 141.109375 477.464844 146.78125 Z M 477.464844 146.78125 "/>
<path style=" stroke:none;fill-rule:nonzero;fill:rgb(0%,0%,0%);fill-opacity:1;" d="M 267.078125 157.804688 C 255.109375 164.734375 263.925781 188.988281 278.101562 188.988281 C 284.714844 188.988281 296.050781 177.960938 296.050781 171.664062 C 296.050781 165.046875 284.714844 154.339844 278.101562 154.339844 C 274.949219 154.339844 269.910156 155.914062 267.078125 157.804688 Z M 267.078125 157.804688 "/>
<path style=" stroke:none;fill-rule:nonzero;fill:rgb(0%,0%,0%);fill-opacity:1;" d="M 1652.851562 209.773438 C 1643.40625 214.816406 1634.585938 228.988281 1634.585938 239.382812 C 1634.585938 256.078125 1652.539062 274.03125 1669.230469 274.03125 C 1685.921875 274.03125 1703.875 256.078125 1703.875 239.382812 C 1703.875 228.675781 1695.054688 214.816406 1684.976562 209.460938 C 1673.640625 203.476562 1663.875 203.476562 1652.851562 209.773438 Z M 1652.851562 209.773438 "/>
<path style=" stroke:none;fill-rule:nonzero;fill:rgb(0%,0%,0%);fill-opacity:1;" d="M 1801.507812 368.523438 L 1801.507812 532.3125 L 1855.050781 532.3125 L 1855.050781 204.734375 L 1801.507812 204.734375 Z M 1801.507812 368.523438 "/>
<path style=" stroke:none;fill-rule:nonzero;fill:rgb(100%,0%,0%);fill-opacity:1;" d="M 565.964844 213.554688 C 559.980469 220.167969 559.351562 227.730469 563.757812 236.546875 C 568.484375 245.054688 583.914062 244.421875 590.214844 235.605469 C 596.828125 226.152344 596.515625 221.746094 588.953125 214.183594 C 581.082031 206.3125 572.578125 205.996094 565.964844 213.554688 Z M 565.964844 213.554688 "/>
<path style=" stroke:none;fill-rule:nonzero;fill:rgb(0%,0%,0%);fill-opacity:1;" d="M 798.394531 225.523438 C 795.875 231.824219 793.671875 237.492188 793.671875 238.125 C 793.671875 238.4375 772.886719 291.984375 747.6875 356.554688 C 722.492188 421.125 696.984375 486.324219 691 501.445312 C 685.015625 516.5625 680.289062 529.792969 680.289062 530.738281 C 680.289062 531.683594 692.257812 532.3125 706.746094 532.3125 C 725.957031 532.3125 734.777344 531.054688 737.925781 527.589844 C 742.335938 523.492188 752.414062 499.554688 763.121094 467.742188 L 767.53125 455.144531 L 833.671875 454.199219 L 899.808594 453.566406 L 911.464844 486.011719 C 928.46875 533.574219 927.210938 532.3125 960.59375 532.3125 L 988.625 532.3125 L 981.382812 512.46875 C 974.453125 494.515625 958.390625 453.253906 924.375 366.949219 C 916.816406 347.734375 905.480469 318.757812 899.179688 302.378906 C 892.882812 286 882.488281 259.226562 876.1875 243.476562 L 864.535156 214.183594 L 803.121094 214.183594 Z M 860.757812 346.476562 L 884.0625 411.046875 L 835.246094 411.992188 C 808.472656 412.304688 785.796875 412.304688 785.167969 411.675781 C 784.539062 410.730469 789.261719 396.242188 795.5625 379.234375 C 801.859375 361.910156 812.882812 330.726562 819.8125 309.625 C 828.945312 283.480469 833.671875 273.085938 835.246094 276.550781 C 836.503906 279.386719 848.15625 310.882812 860.757812 346.476562 Z M 860.757812 346.476562 "/>
<path style=" stroke:none;fill-rule:nonzero;fill:rgb(62.745098%,12.54902%,94.117647%);fill-opacity:1;" d="M 185.503906 241.273438 C 181.410156 252.925781 188.96875 264.582031 200.9375 264.582031 C 211.960938 264.582031 217.316406 259.542969 217.316406 248.832031 C 217.316406 237.808594 211.960938 233.082031 199.363281 233.082031 C 190.859375 233.082031 188.339844 234.660156 185.503906 241.273438 Z M 185.503906 241.273438 "/>
<path style=" stroke:none;fill-rule:nonzero;fill:rgb(0%,0%,0%);fill-opacity:1;" d="M 1119.644531 302.0625 C 1090.355469 309.308594 1063.582031 333.875 1051.617188 364.746094 C 1042.167969 388.683594 1041.222656 446.007812 1049.726562 473.097656 C 1068.308594 533.257812 1131.296875 553.730469 1183.265625 516.5625 L 1196.808594 506.800781 L 1196.808594 607.90625 L 1250.347656 607.90625 L 1250.347656 305.527344 L 1230.507812 305.527344 C 1210.035156 305.527344 1203.105469 308.992188 1203.105469 318.757812 C 1203.105469 326.316406 1201.53125 326.003906 1188.933594 316.238281 C 1170.035156 302.0625 1142.949219 296.394531 1119.644531 302.0625 Z M 1176.335938 347.421875 C 1179.800781 348.996094 1185.785156 353.40625 1189.878906 356.871094 C 1196.492188 363.167969 1196.808594 365.375 1196.808594 414.511719 L 1196.808594 465.851562 L 1185.785156 476.875 C 1160.585938 502.074219 1122.480469 499.238281 1107.675781 471.207031 C 1102.320312 460.8125 1100.746094 451.679688 1100.117188 425.21875 C 1099.171875 396.558594 1100.117188 389.941406 1106.101562 375.140625 C 1110.195312 365.6875 1117.125 355.296875 1121.535156 351.832031 C 1136.335938 341.121094 1159.644531 338.917969 1176.335938 347.421875 Z M 1176.335938 347.421875 "/>
<path style=" stroke:none;fill-rule:nonzero;fill:rgb(0%,0%,0%);fill-opacity:1;" d="M 2025.125 304.582031 C 2001.816406 308.363281 1977.25 319.074219 1963.078125 331.671875 C 1956.464844 337.339844 1956.464844 338.601562 1960.875 346.789062 C 1963.394531 351.832031 1969.0625 358.128906 1973.15625 360.964844 C 1980.714844 365.6875 1981.976562 365.6875 2000.558594 356.554688 C 2025.753906 344.269531 2040.554688 341.75 2055.042969 346.476562 C 2070.476562 351.515625 2078.664062 365.375 2078.664062 386.164062 L 2078.664062 402.226562 L 2050.949219 404.117188 C 2004.652344 406.953125 1969.0625 422.699219 1952.371094 446.953125 C 1946.699219 455.144531 1944.8125 461.757812 1945.125 475.617188 C 1945.441406 510.265625 1966.226562 531.367188 2003.078125 534.519531 C 2026.699219 536.722656 2046.539062 531.683594 2067.640625 518.140625 C 2084.648438 507.429688 2088.113281 507.113281 2088.113281 516.5625 C 2088.113281 526.328125 2098.507812 532.3125 2116.144531 532.3125 L 2132.519531 532.3125 L 2131.578125 446.324219 C 2130.632812 362.226562 2130.632812 360.335938 2122.757812 345.214844 C 2105.75 312.144531 2069.847656 297.023438 2025.125 304.582031 Z M 2078.664062 454.511719 C 2078.664062 472.152344 2077.71875 475.300781 2070.160156 482.546875 C 2056.933594 494.832031 2048.113281 498.296875 2029.53125 498.296875 C 2015.675781 498.609375 2010.636719 497.035156 2004.652344 491.367188 C 1994.886719 482.230469 1994.257812 467.113281 2003.078125 455.773438 C 2012.210938 444.117188 2025.125 440.652344 2074.886719 434.984375 C 2077.40625 434.667969 2078.664062 440.652344 2078.664062 454.511719 Z M 2078.664062 454.511719 "/>
<path style=" stroke:none;fill-rule:nonzero;fill:rgb(0%,0%,0%);fill-opacity:1;" d="M 1342.3125 391.519531 L 1343.257812 477.507812 L 1352.707031 496.089844 C 1359.949219 510.265625 1365.933594 517.195312 1377.273438 524.125 C 1404.988281 541.132812 1445.617188 538.296875 1473.015625 517.507812 C 1480.890625 511.523438 1487.503906 507.113281 1487.820312 507.746094 C 1488.449219 508.375 1490.023438 513.730469 1491.597656 519.714844 L 1494.75 530.738281 L 1540.101562 532.628906 L 1540.101562 305.527344 L 1483.410156 305.527344 L 1483.410156 388.367188 C 1483.410156 481.601562 1484.984375 474.671875 1458.53125 488.214844 C 1431.128906 501.761719 1404.359375 491.367188 1398.375 464.277344 C 1396.800781 457.664062 1395.226562 418.921875 1395.226562 378.605469 L 1395.226562 305.527344 L 1341.054688 305.527344 Z M 1342.3125 391.519531 "/>
<path style=" stroke:none;fill-rule:nonzero;fill:rgb(0%,0%,0%);fill-opacity:1;" d="M 1640.886719 418.921875 L 1640.886719 532.3125 L 1694.425781 532.3125 L 1694.425781 305.527344 L 1640.886719 305.527344 Z M 1640.886719 418.921875 "/>
<path style=" stroke:none;fill-rule:nonzero;fill:rgb(0%,0%,0%);fill-opacity:1;" d="M 153.066406 334.191406 C 142.671875 342.382812 142.671875 349.625 152.75 359.074219 C 159.363281 365.375 161.570312 366.003906 168.496094 362.855469 C 177 358.761719 182.039062 344.902344 177.316406 337.65625 C 171.960938 328.835938 161.570312 327.578125 153.066406 334.191406 Z M 153.066406 334.191406 "/>
<path style=" stroke:none;fill-rule:nonzero;fill:rgb(100%,0%,0%);fill-opacity:1;" d="M 177.316406 440.96875 C 171.648438 443.175781 170.074219 446.324219 170.074219 454.511719 C 170.074219 467.113281 174.796875 472.46875 186.136719 472.46875 C 194.636719 472.46875 204.71875 462.703125 204.71875 455.144531 C 204.402344 444.433594 188.65625 436.558594 177.316406 440.96875 Z M 177.316406 440.96875 "/>
<path style=" stroke:none;fill-rule:nonzero;fill:rgb(62.745098%,12.54902%,94.117647%);fill-opacity:1;" d="M 546.75 514.042969 C 540.453125 523.179688 540.453125 530.421875 546.75 536.722656 C 557.144531 547.433594 576.355469 539.558594 576.355469 524.753906 C 576.355469 508.6875 555.570312 501.445312 546.75 514.042969 Z M 546.75 514.042969 "/>
<path style=" stroke:none;fill-rule:nonzero;fill:rgb(0%,0%,0%);fill-opacity:1;" d="M 244.402344 531.054688 C 231.800781 543.652344 246.605469 565.386719 262.984375 558.140625 C 273.0625 553.417969 275.894531 543.335938 269.597656 533.886719 C 263.613281 524.753906 251.644531 523.492188 244.402344 531.054688 Z M 244.402344 531.054688 "/>
<path style=" stroke:none;fill-rule:nonzero;fill:rgb(0%,0%,0%);fill-opacity:1;" d="M 449.433594 566.332031 C 438.722656 578.300781 445.339844 592.789062 461.402344 592.789062 C 471.792969 593.105469 478.722656 586.804688 478.722656 577.667969 C 478.722656 562.234375 459.511719 554.992188 449.433594 566.332031 Z M 449.433594 566.332031 "/>
<path style=" stroke:none;fill-rule:nonzero;fill:rgb(100%,64.705882%,0%);fill-opacity:1;" d="M 338.886719 573.890625 C 332.269531 583.339844 332.585938 587.75 340.144531 595.308594 C 347.703125 602.867188 356.835938 603.496094 363.453125 596.566406 C 369.433594 590.898438 370.066406 576.09375 364.710938 570.738281 C 358.414062 564.441406 344.238281 566.332031 338.886719 573.890625 Z M 338.886719 573.890625 "/>
</g>
</svg>
