<svg width="426" height="523" viewBox="0 0 426 523" fill="none" xmlns="http://www.w3.org/2000/svg">
<g filter="url(#filter0_d_204_1494)">
<path d="M345.26 245.633V452.355C345.26 467.483 333.032 479.712 317.903 479.712H157.243C142.115 479.712 129.887 467.483 129.887 452.355V42.1983C129.887 27.07 142.115 14.8417 157.243 14.8417H317.903C333.032 14.8417 345.26 27.07 345.26 42.1983V245.633Z" fill="white"/>
<path d="M305.723 488.363L270.198 439.16C270.198 439.16 250.188 411.513 237.622 411.03C237.525 418.28 238.008 470.287 240.232 488.315H305.723V488.363Z" fill="#AB80FF" fill-opacity="0.87"/>
<path d="M191.463 4.01501H283.683C287.888 4.01501 291.272 7.39835 291.272 11.6034V23.2517C291.272 27.4567 287.888 30.84 283.683 30.84H191.463C187.258 30.84 183.875 27.4567 183.875 23.2517V11.6034C183.875 7.44668 187.258 4.01501 191.463 4.01501Z" fill="#F3F3F3"/>
<path d="M338.687 480.485H345.26V400.445L289.87 391.262L237.573 411.078C240.038 416.685 253.04 453.902 280.928 486.478H338.638V480.485H338.687Z" fill="#AB80FF"/>
<path d="M222.155 284.155C217.66 284.058 217.66 290.97 217.66 290.97C215.485 284.493 168.022 166.415 168.022 166.415C168.022 166.415 158.21 170.572 169.52 192.902C165.847 195.077 155.648 203.245 159.853 216.392C163.043 226.252 170.003 229.732 174.353 229.732C173.628 237.127 189.433 312.672 191.512 316.297C196.345 324.852 205.673 334.18 211.183 334.422C219.98 334.857 241.633 323.305 246.998 317.263C252.363 311.222 230.613 284.3 222.155 284.155Z" fill="#DE8E68"/>
<path d="M287.502 242.492C266.09 223.4 213.842 269.123 214.857 277.05C215.872 284.977 244.002 313.638 252.267 311.222C260.532 308.805 304.37 257.475 287.502 242.492Z" fill="#AB80FF"/>
<path d="M345.26 245.633C335.738 230.215 321.77 220.258 301.76 220.258C232.305 220.258 230.323 401.025 237.573 411.078C244.002 419.972 320.61 422.292 345.26 416.153" fill="#28065A"/>
<path d="M345.26 311.608L337.962 314.605C338.59 316.925 341.393 329.927 345.26 344.282" fill="#DE8E68"/>
<path d="M345.26 244.038C340.427 240.462 335.497 239.012 330.953 240.897C304.757 251.82 323.413 317.505 330.953 319.922C333.37 320.695 338.88 319.922 345.26 318.23" fill="#AB80FF"/>
<path d="M315.1 236.112C315.1 241.863 283.248 243.12 283.248 236.112V196.962H315.1V236.112Z" fill="#DE8E68"/>
<path d="M321.747 190.945C329.671 171.027 324.091 150.105 309.283 144.213C294.475 138.322 276.047 149.692 268.123 169.609C260.198 189.527 265.778 210.449 280.586 216.341C295.394 222.233 313.822 210.862 321.747 190.945Z" fill="#DE8E68"/>
<path d="M325.016 197.593C327.953 193.491 328.013 188.503 325.148 186.451C322.283 184.399 317.58 186.061 314.642 190.163C311.704 194.264 311.645 199.253 314.509 201.305C317.374 203.356 322.078 201.695 325.016 197.593Z" fill="#DE8E68"/>
<path d="M346.613 175.502C346.613 170.185 341.635 164.337 340.717 157.667C340.233 154.283 341.297 140.218 337.333 135.433C329.117 125.573 324.283 127.603 318 125.283C307.077 121.272 302.872 114.65 293.833 114.65C283.587 114.65 279.43 119.967 272.083 119.967C263.673 119.967 256.81 116.1 245.017 116.1C238.733 116.1 230.517 124.317 230.517 131.567C230.517 148.725 246.467 146.26 246.467 150.417C246.467 153.317 245.5 155.637 245.5 159.6C245.5 164.82 252.267 167.817 256.133 167.817C267.927 167.817 269.473 166.367 269.473 166.367C271.793 161.678 274.79 157.377 278.367 153.558C278.85 153.075 286.487 158.44 298.957 158.875C309.203 159.213 316.405 161.195 316.405 165.98C316.405 169.363 315.148 179.368 315.245 182.172C315.342 184.975 316.308 186.812 316.937 186.812C317.565 186.812 317.903 185.893 321.867 185.893C326.072 185.893 326.41 191.065 327.135 191.065C331.388 191.065 346.613 187.633 346.613 175.502Z" fill="#564578"/>
<path d="M155.842 111.653H179.96C187.113 111.653 192.913 117.453 192.913 124.607V148.725C192.913 155.878 187.113 161.678 179.96 161.678H155.842C148.688 161.678 142.888 155.878 142.888 148.725V124.607C142.888 117.453 148.688 111.653 155.842 111.653Z" fill="#28065A"/>
<path d="M186.92 125.912C192.579 125.912 197.167 121.324 197.167 115.665C197.167 110.006 192.579 105.418 186.92 105.418C181.261 105.418 176.673 110.006 176.673 115.665C176.673 121.324 181.261 125.912 186.92 125.912Z" fill="#AB80FF"/>
<path d="M318.773 0.0999756H156.422C134.575 0.0999756 116.837 17.8383 116.837 39.685V454.772C116.837 476.618 134.575 494.357 156.422 494.357H318.773C340.62 494.357 358.358 476.618 358.358 454.772V39.685C358.358 17.8383 340.62 0.0999756 318.773 0.0999756ZM345.26 245.633V452.355C345.26 467.483 333.032 479.712 317.903 479.712H157.243C142.115 479.712 129.887 467.483 129.887 452.355V42.1983C129.887 27.07 142.115 14.8416 157.243 14.8416H317.903C333.032 14.8416 345.26 27.07 345.26 42.1983V245.633Z" fill="#F3F3F3"/>
<path d="M343.907 61.5317H402.535C413.12 61.5317 421.723 70.135 421.723 80.72C421.723 91.305 413.12 99.9083 402.535 99.9083H343.907C333.322 99.9083 324.718 91.305 324.718 80.72C324.718 70.0867 333.322 61.5317 343.907 61.5317Z" fill="#28065A"/>
<path d="M347.532 90.9666L330.905 74.2916V107.642L347.532 90.9666Z" fill="#28065A"/>
<path d="M353.428 86.1817C356.098 86.1817 358.262 84.0177 358.262 81.3483C358.262 78.679 356.098 76.515 353.428 76.515C350.759 76.515 348.595 78.679 348.595 81.3483C348.595 84.0177 350.759 86.1817 353.428 86.1817Z" fill="#AB80FF"/>
<path d="M373.245 86.1817C375.914 86.1817 378.078 84.0177 378.078 81.3483C378.078 78.679 375.914 76.515 373.245 76.515C370.576 76.515 368.412 78.679 368.412 81.3483C368.412 84.0177 370.576 86.1817 373.245 86.1817Z" fill="#AB80FF"/>
<path d="M393.013 86.1817C395.683 86.1817 397.847 84.0177 397.847 81.3483C397.847 78.679 395.683 76.515 393.013 76.515C390.344 76.515 388.18 78.679 388.18 81.3483C388.18 84.0177 390.344 86.1817 393.013 86.1817Z" fill="#AB80FF"/>
<path d="M81.6985 451.195C88.9001 448.102 94.5068 443.317 94.5068 429.542C94.5068 365.017 18.1401 382.417 18.1401 328.815" stroke="#AB80FF" stroke-width="9" stroke-miterlimit="10" stroke-linecap="round"/>
<path d="M31.5766 328.477C35.7333 333.89 21.8616 340.028 19.8799 337.467C17.8983 334.905 27.1783 322.725 31.5766 328.477Z" fill="#AB80FF"/>
<path d="M99.2434 233.647C104.27 240.22 89.3834 246.213 86.9667 243.072C84.55 239.93 93.83 226.59 99.2434 233.647Z" fill="#AB80FF"/>
<path d="M95.1833 260.81C99.195 268.06 79.7166 273.908 77.7833 270.428C75.85 266.948 90.93 253.028 95.1833 260.81Z" fill="#AB80FF"/>
<path d="M96.3433 281.448C101.612 287.828 83.4866 297.108 80.9733 294.063C78.46 291.018 90.7366 274.585 96.3433 281.448Z" fill="#AB80FF"/>
<path d="M102.53 304.6C107.798 310.98 89.6734 320.26 87.1601 317.215C84.6467 314.17 96.9234 297.785 102.53 304.6Z" fill="#AB80FF"/>
<path d="M107.943 326.205C112.728 332.005 96.8751 339.932 94.6034 337.128C92.3317 334.325 102.82 319.97 107.943 326.205Z" fill="#AB80FF"/>
<path d="M115.193 349.84C119.978 355.64 104.125 363.567 101.853 360.763C99.5817 357.96 110.07 343.605 115.193 349.84Z" fill="#AB80FF"/>
<path d="M5.28332 324.223C7.02332 317.65 20.4117 324.803 19.59 327.993C18.7683 331.183 3.44665 331.28 5.28332 324.223Z" fill="#AB80FF"/>
<path d="M5.04174 347.375C4.17174 340.657 19.3001 342.3 19.6867 345.538C20.0734 348.777 5.96008 354.625 5.04174 347.375Z" fill="#AB80FF"/>
<path d="M18.3816 368.4C13.9833 363.228 27.5166 356.317 29.6433 358.782C31.7699 361.247 23.1183 373.91 18.3816 368.4Z" fill="#AB80FF"/>
<path d="M35.1533 379.758C32.495 373.523 47.4783 371.01 48.735 374.007C49.9916 377.003 37.9566 386.428 35.1533 379.758Z" fill="#AB80FF"/>
<path d="M57.6284 391.552C54.9701 385.317 69.9534 382.803 71.2101 385.8C72.4667 388.797 60.4801 398.222 57.6284 391.552Z" fill="#AB80FF"/>
<path d="M74.4966 408.662C73.9166 401.895 88.9483 404.167 89.2383 407.405C89.5283 410.643 75.1249 415.912 74.4966 408.662Z" fill="#AB80FF"/>
<path d="M38.8749 343.025C44.1916 347.278 32.2049 356.607 29.6433 354.577C27.0816 352.547 33.1716 338.433 38.8749 343.025Z" fill="#AB80FF"/>
<path d="M50.9099 355.108C56.7582 358.588 46.2216 369.463 43.4182 367.82C40.6149 366.177 44.6749 351.435 50.9099 355.108Z" fill="#AB80FF"/>
<path d="M72.9983 366.998C78.5083 370.962 66.9566 380.87 64.2983 378.937C61.6399 377.003 67.1016 362.745 72.9983 366.998Z" fill="#AB80FF"/>
<path d="M83.0517 453.708C83.0517 450.953 106.493 425.24 106.493 393.292C106.493 341.188 77.3967 315.088 77.3967 277.872C77.3967 270.815 78.0251 248.678 89.2384 239.688" stroke="#AB80FF" stroke-width="9" stroke-miterlimit="10" stroke-linecap="round"/>
<path d="M114.903 513.593H72.1765C70.1949 513.593 68.4065 512.337 67.7782 510.403L46.5115 445.975C45.7382 443.558 47.0432 440.948 49.4599 440.127C49.9432 439.982 50.4265 439.885 50.9099 439.885H136.363C138.925 439.885 141.003 441.963 141.003 444.525C141.003 445.008 140.907 445.492 140.762 445.975L119.302 510.403C118.625 512.337 116.885 513.593 114.903 513.593Z" fill="#FD8369"/>
<path d="M122.057 376.955C124.57 384.06 106.977 386.09 105.817 382.707C104.657 379.323 119.398 369.318 122.057 376.955Z" fill="#AB80FF"/>
<path d="M93.3467 387.395C98.905 382.368 107.605 397.787 104.898 400.203C102.192 402.62 87.3534 392.808 93.3467 387.395Z" fill="#AB80FF"/>
<path d="M88.8517 368.158C92.525 361.633 105.623 373.523 103.883 376.617C102.143 379.71 84.8884 375.167 88.8517 368.158Z" fill="#AB80FF"/>
<path d="M84.6466 345.345C88.32 338.82 101.418 350.71 99.6783 353.803C97.9383 356.897 80.6833 352.353 84.6466 345.345Z" fill="#AB80FF"/>
<path d="M77.1549 327.22C79.5716 320.067 94.6516 329.298 93.4916 332.73C92.3316 336.162 74.5449 334.808 77.1549 327.22Z" fill="#AB80FF"/>
<path d="M66.5218 302.183C70.0501 295.513 83.4385 307.065 81.7468 310.255C80.0551 313.445 62.8001 309.337 66.5218 302.183Z" fill="#AB80FF"/>
<path d="M61.5434 274.343C65.6517 268.06 77.9767 280.772 75.995 283.768C74.0134 286.765 57.145 281.11 61.5434 274.343Z" fill="#AB80FF"/>
<path d="M64.0084 250.37C68.1168 244.087 80.4418 256.798 78.4601 259.795C76.4784 262.792 59.6101 257.137 64.0084 250.37Z" fill="#AB80FF"/>
<path d="M122.057 401.605C124.57 408.71 106.977 410.74 105.817 407.357C104.657 403.973 119.398 394.017 122.057 401.605Z" fill="#AB80FF"/>
</g>
<defs>
<filter id="filter0_d_204_1494" x="-4" y="0" width="430" height="523" filterUnits="userSpaceOnUse" color-interpolation-filters="sRGB">
<feFlood flood-opacity="0" result="BackgroundImageFix"/>
<feColorMatrix in="SourceAlpha" type="matrix" values="0 0 0 0 0 0 0 0 0 0 0 0 0 0 0 0 0 0 127 0" result="hardAlpha"/>
<feOffset dy="5"/>
<feGaussianBlur stdDeviation="2"/>
<feComposite in2="hardAlpha" operator="out"/>
<feColorMatrix type="matrix" values="0 0 0 0 0 0 0 0 0 0 0 0 0 0 0 0 0 0 0.25 0"/>
<feBlend mode="normal" in2="BackgroundImageFix" result="effect1_dropShadow_204_1494"/>
<feBlend mode="normal" in="SourceGraphic" in2="effect1_dropShadow_204_1494" result="shape"/>
</filter>
</defs>
</svg>
